# xmcd CD database file
# Copyright (C) 1997 Ti Kan
# 
# Track frame offsets:
#     150
#     18952
#     32347
#     42307
#     61050
#     78080
#     97042
#     114825
#     129172
#     147025
#     162412
#     178277
#     194212
# 
# Disc length: 2804 seconds
# 
# Revision: 1
# Processed by: cddbd v1.4b41PL1 Copyright (c) Steve Scherf et al.
# Submitted via: DiscPlay 4.0.3
# 
DISCID=a30af20d
DTITLE=Various Country - CDPRO # 15
DYEAR=1900
DGENRE=
TTITLE0=Constance - Ron Hynes
TTITLE1=The Confederation bridge - Tom Connors
TTITLE2=Lonesome River - Gene Maclellan
TTITLE3=Moment To Moment - Terry Kelly
TTITLE4=It's Your Love - Tim McGraw
TTITLE5=How Do I Live - LeAnne Rimes
TTITLE6=Butterfly Kisses - Jeff Carson
TTITLE7=Live To Love Again - Burnin' Daylight
TTITLE8=This Night Won't Last Forever - Sayer Brown
TTITLE9=Day In, Day Out - David Kersh
TTITLE10=I Broke It, I'll Fix It - River Road
TTITLE11=My Greatest Love - Jeffrey Steele
TTITLE12=Ridin' Out The Heartache - Tanya Tucker
EXTD=
EXTT0=
EXTT1=
EXTT2=
EXTT3=
EXTT4=
EXTT5=
EXTT6=
EXTT7=
EXTT8=
EXTT9=
EXTT10=
EXTT11=
EXTT12=
PLAYORDER=
